<?xml version="1.0" standalone="no"?>
<!DOCTYPE svg PUBLIC "-//W3C//DTD SVG 20010904//EN"
 "http://www.w3.org/TR/2001/REC-SVG-20010904/DTD/svg10.dtd">
<svg version="1.0" xmlns="http://www.w3.org/2000/svg"
 width="500.000000pt" height="500.000000pt" viewBox="0 0 500.000000 500.000000"
 preserveAspectRatio="xMidYMid meet">
<metadata>
Created by potrace 1.14, written by Peter Selinger 2001-2017
</metadata>
<g transform="translate(0.000000,500.000000) scale(0.100000,-0.100000)"
fill="#000000" stroke="none">
<path d="M2290 4319 c-25 -3 -63 -9 -85 -12 -111 -16 -300 -71 -423 -123 -481
-205 -859 -618 -1021 -1117 -34 -106 -51 -176 -76 -327 -10 -62 -13 -353 -4
-445 20 -200 86 -418 189 -622 176 -349 456 -630 795 -797 301 -148 504 -196
830 -196 105 0 201 2 215 4 14 2 50 7 80 10 138 16 378 95 551 182 158 79 296
179 443 322 283 277 490 695 531 1072 13 121 13 373 0 465 -72 497 -309 910
-695 1212 -261 204 -622 350 -911 368 -157 10 -368 12 -419 4z m400 -44 c175
-15 429 -89 602 -176 495 -248 847 -708 960 -1254 19 -96 22 -140 23 -340 0
-204 -3 -243 -24 -345 -149 -722 -687 -1262 -1406 -1412 -96 -20 -140 -23
-340 -23 -204 0 -243 3 -345 24 -430 88 -787 305 -1052 636 -206 258 -339 572
-378 890 -16 128 -14 362 4 482 108 720 634 1299 1341 1477 197 49 377 61 615
41z"/>
<path d="M2616 4093 c-9 -39 -11 -151 -3 -159 11 -12 27 7 28 34 1 15 4 38 8
51 6 22 9 19 49 -38 64 -91 73 -85 90 52 6 43 5 70 -1 74 -15 9 -37 -27 -37
-58 0 -47 -17 -42 -60 16 -45 61 -65 69 -74 28z"/>
<path d="M2256 4083 c-24 -48 -57 -166 -48 -175 4 -4 21 5 37 22 33 34 77 40
113 14 12 -8 27 -14 32 -12 18 6 -88 178 -110 178 -5 0 -16 -12 -24 -27z m48
-52 c14 -26 14 -30 0 -35 -26 -10 -34 -7 -34 13 0 20 10 51 16 51 2 0 10 -13
18 -29z"/>
<path d="M1945 4029 c-4 -6 -10 -43 -14 -82 l-6 -71 -53 47 c-53 47 -72 57
-72 36 0 -19 123 -140 139 -137 19 4 30 57 30 145 1 59 -10 86 -24 62z"/>
<path d="M3035 3993 c-28 -59 -44 -119 -35 -133 6 -10 15 0 31 33 13 26 26 47
30 47 4 0 17 -30 30 -67 13 -37 30 -68 37 -71 14 -4 60 90 69 143 7 47 -8 45
-36 -5 -21 -37 -41 -52 -41 -30 0 24 -43 120 -54 120 -7 0 -21 -17 -31 -37z"/>
<path d="M2260 3815 c-166 -31 -392 -127 -525 -224 -82 -60 -237 -211 -304
-296 -131 -164 -222 -390 -252 -620 -16 -126 -6 -367 20 -471 65 -261 176
-459 361 -644 186 -187 418 -314 675 -371 96 -21 440 -18 540 5 494 114 870
468 1010 951 35 123 44 213 39 399 -5 176 -20 264 -66 394 -67 191 -165 346
-319 501 -171 171 -351 278 -579 344 -157 46 -441 60 -600 32z m495 -48 c260
-59 477 -177 660 -362 249 -249 387 -602 372 -950 -3 -66 -8 -133 -12 -150 -3
-16 -10 -55 -16 -85 -18 -86 -66 -216 -120 -320 -286 -550 -951 -821 -1534
-626 -344 115 -604 341 -765 665 -35 71 -90 228 -104 296 -3 17 -8 44 -11 60
-14 69 -17 275 -6 357 41 311 160 550 383 770 183 181 424 305 686 352 101 19
371 15 467 -7z"/>
<path d="M2712 3452 c-12 -2 -22 -9 -21 -15 1 -7 1 -47 0 -90 l-1 -79 -97 91
-96 92 -46 -43 c-115 -108 -559 -554 -588 -590 -38 -47 -40 -54 -14 -68 18 -9
58 27 333 299 l313 310 312 -312 312 -311 26 24 26 24 -96 96 -95 95 0 243 0
243 -122 -2 c-68 -2 -133 -4 -146 -7z m208 -234 l0 -183 -85 85 -85 85 0 97 0
98 85 0 85 0 0 -182z"/>
<path d="M2062 2787 l-423 -423 26 -24 25 -24 395 395 c218 216 399 394 404
394 4 0 187 -177 405 -392 353 -349 400 -392 417 -382 11 6 23 17 26 26 4 10
-120 141 -413 434 -230 230 -423 419 -429 419 -6 0 -200 -190 -433 -423z"/>
<path d="M2155 2450 c-4 -6 1 -23 11 -38 41 -62 315 -352 333 -352 11 0 94 83
171 170 36 40 76 85 88 99 36 40 82 103 82 113 0 4 -8 8 -19 8 -11 0 -66 -54
-144 -142 -69 -79 -137 -156 -152 -171 l-26 -28 -27 29 c-15 16 -54 58 -86 93
-79 86 -179 190 -204 212 -14 13 -22 15 -27 7z"/>
<path d="M1880 2190 l0 -180 30 0 30 0 0 180 0 180 -30 0 -30 0 0 -180z"/>
<path d="M3050 2280 l0 -90 30 0 30 0 0 90 0 90 -30 0 -30 0 0 -90z"/>
<path d="M3060 1905 l0 -155 -555 0 -555 0 0 65 c0 63 -1 65 -25 65 -31 0 -32
-4 -38 -107 l-5 -83 619 0 619 0 0 185 0 185 -30 0 -30 0 0 -155z"/>
<path d="M1011 1991 c-41 -15 -79 -34 -84 -42 -7 -12 -2 -32 19 -75 26 -52 33
-59 61 -62 24 -2 35 2 45 17 7 12 22 21 34 21 30 0 47 25 46 65 -1 33 -24 89
-39 98 -5 3 -41 -7 -82 -22z m79 -40 c15 -29 12 -61 -5 -61 -8 0 -22 14 -31
31 -13 26 -14 33 -2 40 20 13 26 11 38 -10z m-72 -36 c25 -55 4 -87 -30 -47
-23 27 -30 54 -16 64 22 13 34 9 46 -17z"/>
<path d="M3896 1998 c-22 -36 -27 -63 -17 -90 16 -42 46 -41 98 3 58 51 79 40
44 -22 -31 -55 -14 -75 23 -26 30 40 34 87 8 110 -26 24 -39 21 -85 -18 -22
-19 -45 -35 -50 -35 -9 0 -6 34 8 78 5 13 3 22 -4 22 -6 0 -17 -10 -25 -22z"/>
<path d="M3736 1683 c-14 -15 -31 -40 -37 -55 -13 -32 -18 -27 79 -94 63 -44
72 -42 115 34 34 60 21 68 -27 16 -47 -51 -78 -27 -40 31 27 42 11 50 -30 15
-49 -43 -66 -30 -37 28 12 23 21 44 21 47 0 13 -21 3 -44 -22z"/>
<path d="M1235 1668 c-35 -19 -77 -62 -90 -93 -22 -50 18 -105 77 -105 25 0
104 45 126 72 27 33 -10 30 -68 -6 -67 -41 -71 -42 -93 -18 -25 28 -21 38 33
89 61 57 69 91 15 61z"/>
<path d="M3495 1399 c-18 -23 -25 -41 -23 -63 3 -29 5 -31 43 -30 22 0 55 4
73 9 43 10 42 -8 -3 -48 -38 -33 -44 -47 -20 -47 28 0 85 60 85 90 0 43 -23
56 -76 42 -82 -22 -96 -10 -44 36 35 31 38 42 11 42 -11 0 -31 -14 -46 -31z"/>
<path d="M1487 1393 c-3 -5 -8 -28 -12 -53 -4 -25 -16 -62 -27 -83 -10 -21
-18 -43 -16 -48 2 -5 37 8 79 29 41 22 86 41 98 45 14 3 20 10 16 17 -7 12
-40 10 -92 -6 -22 -6 -23 -3 -23 44 0 46 -12 74 -23 55z"/>
<path d="M3250 1209 c0 -6 12 -39 27 -72 l27 -60 -24 -19 c-13 -10 -29 -18
-36 -16 -7 2 -30 27 -51 57 -58 83 -87 77 -43 -8 26 -52 76 -93 104 -85 76 21
93 74 51 160 -24 48 -55 73 -55 43z"/>
<path d="M1781 1163 c-25 -17 -27 -55 -5 -74 22 -18 46 -67 35 -73 -5 -3 -26
6 -46 20 -28 19 -41 22 -49 14 -18 -18 47 -70 87 -70 64 0 75 45 27 105 -16
21 -30 42 -30 46 0 13 32 10 60 -6 32 -18 40 -18 40 -1 0 35 -85 63 -119 39z"/>
<path d="M2823 1053 c-33 -6 -73 -59 -73 -96 1 -51 49 -97 102 -97 38 0 85 35
98 74 9 29 8 40 -5 66 -14 28 -69 63 -92 59 -4 -1 -18 -4 -30 -6z m71 -49 c29
-29 31 -65 5 -85 -49 -38 -109 -11 -109 48 0 43 72 69 104 37z"/>
<path d="M2356 988 c-17 -139 -17 -168 -2 -168 18 0 36 30 36 59 0 18 6 21 44
21 42 0 44 -1 50 -34 7 -36 33 -56 42 -32 3 8 3 41 0 73 -3 32 -5 68 -5 81 -1
32 -15 27 -32 -10 -12 -29 -20 -33 -55 -36 -41 -3 -41 -3 -48 37 -9 55 -24 60
-30 9z"/>
</g>
</svg>
